# xmcd
#
# Track frame offsets: 
#        180
#        4672
#        24615
#        39313
#        50431
#        67045
#        85620
#        101374
#        119283
#        139729
#        160168
#        176884
#        195919
#        214261
#        230392
#        251064
#
# Disc length: 3442 seconds
#
# Revision: 2
# Processed by: cddbd v1.5.2PL0 Copyright (c) Steve Scherf et al.
# Submitted via: ExactAudioCopy v1.0b3
#
DISCID=d00d7010
DTITLE=Hank Häberle Jr. - Mir miassad schbara!?
DYEAR=1997
DGENRE=Folk
TTITLE0=Intro: Koin Eileiter
TTITLE1=Mir miassad schbara (Country Mix)
TTITLE2=Hank Häberle isch heit en onsrer Stadt
TTITLE3=Kipp oin hender d'Benda (Sauflied)
TTITLE4=Mexicau
TTITLE5=Mir hend blos oin Fehler
TTITLE6=Eckstein, Eckstein
TTITLE7=Sag doch mol wieder ebbes liabs zu mir
TTITLE8=Bei on em Schwobaländle (recorded live in Zell u. A.)
TTITLE9=I ben emmer so traurig (wenn dr VfB verliert)
TTITLE10=Bei ons en dr gschlossena Abteilong
TTITLE11=Magagschwier
TTITLE12=Nix los
TTITLE13=A Mark fir d'Musicbox
TTITLE14=Leit, I glaub mir gehn jetzt hoim
TTITLE15=Outro: Rot mol wer do trommelt?
EXTD=
EXTT0=
EXTT1=
EXTT2=
EXTT3=
EXTT4=
EXTT5=
EXTT6=
EXTT7=
EXTT8=
EXTT9=
EXTT10=
EXTT11=
EXTT12=
EXTT13=
EXTT14=
EXTT15=
PLAYORDER=
